<?xml version="1.0" encoding="iso-8859-1"?>
<!-- Generator: Adobe Illustrator 19.0.0, SVG Export Plug-In . SVG Version: 6.00 Build 0)  -->
<svg version="1.1" id="Capa_1" xmlns="http://www.w3.org/2000/svg" xmlns:xlink="http://www.w3.org/1999/xlink" x="0px" y="0px"
	 viewBox="0 0 469.333 469.333" style="enable-background:new 0 0 469.333 469.333;" xml:space="preserve">
<path style="fill:#303C42;" d="M458.667,277.333h-46.729c34.551-22.944,57.396-62.169,57.396-106.667c0-70.583-57.417-128-128-128
	h-44.5c-16.604,0-32.208-6.469-43.958-18.208C237.083,8.688,216.125,0,193.833,0H74.667c-3.75,0-7.229,1.969-9.167,5.198
	c-1.917,3.219-2,7.219-0.229,10.521L128,132.216v145.117H53.333c-5.896,0-10.667,4.771-10.667,10.667c0,17.646-14.354,32-32,32
	C4.771,320,0,324.771,0,330.667v10.667C0,364.865,19.146,384,42.667,384h1.251l9.499,75.99c0.667,5.333,5.208,9.344,10.583,9.344
	s9.917-4.01,10.583-9.344L84.082,384h194.503l9.499,75.99c0.667,5.333,5.208,9.344,10.583,9.344s9.917-4.01,10.583-9.344
	l9.499-75.99h66.503l9.499,75.99c0.667,5.333,5.208,9.344,10.583,9.344s9.917-4.01,10.583-9.344l9.499-75.99h1.251
	c23.521,0,42.667-19.135,42.667-42.667V288C469.333,282.104,464.563,277.333,458.667,277.333z M149.333,277.333V171.835
	l56.807,105.499H149.333z"/>
<g>
	<path id="SVGCleanerId_0" style="fill:#37474F;" d="M92.521,21.333h101.313c16.604,0,32.208,6.469,43.958,18.208
		C253.583,55.313,274.542,64,296.833,64h44.5C400.146,64,448,111.854,448,170.667s-47.854,106.667-106.667,106.667H230.375
		l-81.042-150.497V53.333c0-5.896-4.771-10.667-10.667-10.667S128,47.438,128,53.333v33.885L92.521,21.333z"/>
</g>
<g>
	
		<linearGradient id="SVGCleanerId_0_3_" gradientUnits="userSpaceOnUse" x1="-61.1514" y1="624.6992" x2="-48.286" y2="611.8339" gradientTransform="matrix(21.3333 0 0 -21.3333 1430.1112 13315.2227)">
		<stop  offset="0" style="stop-color:#000000;stop-opacity:0.1"/>
		<stop  offset="1" style="stop-color:#000000;stop-opacity:0"/>
	</linearGradient>
	<path id="SVGCleanerId_0_1_" style="fill:url(#SVGCleanerId_0_3_);" d="M92.521,21.333h101.313
		c16.604,0,32.208,6.469,43.958,18.208C253.583,55.313,274.542,64,296.833,64h44.5C400.146,64,448,111.854,448,170.667
		s-47.854,106.667-106.667,106.667H230.375l-81.042-150.497V53.333c0-5.896-4.771-10.667-10.667-10.667S128,47.438,128,53.333
		v33.885L92.521,21.333z"/>
</g>
<g>
	
		<linearGradient id="SVGCleanerId_0_4_" gradientUnits="userSpaceOnUse" x1="-63.6634" y1="621.0836" x2="-46.8705" y2="613.2546" gradientTransform="matrix(21.3333 0 0 -21.3333 1430.1112 13315.2227)">
		<stop  offset="0" style="stop-color:#FFFFFF;stop-opacity:0.2"/>
		<stop  offset="1" style="stop-color:#FFFFFF;stop-opacity:0"/>
	</linearGradient>
	<path id="SVGCleanerId_0_2_" style="fill:url(#SVGCleanerId_0_4_);" d="M92.521,21.333h101.313
		c16.604,0,32.208,6.469,43.958,18.208C253.583,55.313,274.542,64,296.833,64h44.5C400.146,64,448,111.854,448,170.667
		s-47.854,106.667-106.667,106.667H230.375l-81.042-150.497V53.333c0-5.896-4.771-10.667-10.667-10.667S128,47.438,128,53.333
		v33.885L92.521,21.333z"/>
</g>
<path style="fill:#37474F;" d="M448,341.333c0,11.76-9.563,21.333-21.333,21.333h-384c-11.771,0-21.333-9.573-21.333-21.333v-1.073
	c20.875-4.25,37.333-20.729,41.604-41.594H224h117.333H448V341.333z"/>
<path style="opacity:0.1;enable-background:new    ;" d="M435.333,298.667V328c0,11.76-9.563,21.333-21.333,21.333H30
	c-2.605,0-5.039-0.629-7.349-1.487c2.79,8.533,10.556,14.82,20.016,14.82h384c11.771,0,21.333-9.573,21.333-21.333v-42.667H435.333z
	"/>
<linearGradient id="SVGID_1_" gradientUnits="userSpaceOnUse" x1="-67.2142" y1="616.948" x2="-45.4584" y2="606.8031" gradientTransform="matrix(21.3333 0 0 -21.3333 1430.1112 13315.2227)">
	<stop  offset="0" style="stop-color:#FFFFFF;stop-opacity:0.2"/>
	<stop  offset="1" style="stop-color:#FFFFFF;stop-opacity:0"/>
</linearGradient>
<path style="fill:url(#SVGID_1_);" d="M458.667,277.333h-46.729c34.551-22.944,57.396-62.169,57.396-106.667
	c0-70.583-57.417-128-128-128h-44.5c-16.604,0-32.208-6.469-43.958-18.208C237.083,8.688,216.125,0,193.833,0H74.667
	c-3.75,0-7.229,1.969-9.167,5.198c-1.917,3.219-2,7.219-0.229,10.521L128,132.216v145.117H53.333
	c-5.896,0-10.667,4.771-10.667,10.667c0,17.646-14.354,32-32,32C4.771,320,0,324.771,0,330.667v10.667
	C0,364.865,19.146,384,42.667,384h1.251l9.499,75.99c0.667,5.333,5.208,9.344,10.583,9.344s9.917-4.01,10.583-9.344L84.082,384
	h194.503l9.499,75.99c0.667,5.333,5.208,9.344,10.583,9.344s9.917-4.01,10.583-9.344l9.499-75.99h66.503l9.499,75.99
	c0.667,5.333,5.208,9.344,10.583,9.344s9.917-4.01,10.583-9.344l9.499-75.99h1.251c23.521,0,42.667-19.135,42.667-42.667V288
	C469.333,282.104,464.563,277.333,458.667,277.333z M149.333,277.333V171.835l56.807,105.499H149.333z"/>
<g>
</g>
<g>
</g>
<g>
</g>
<g>
</g>
<g>
</g>
<g>
</g>
<g>
</g>
<g>
</g>
<g>
</g>
<g>
</g>
<g>
</g>
<g>
</g>
<g>
</g>
<g>
</g>
<g>
</g>
</svg>
